<mxfile host="app.diagrams.net" modified="2023-05-28T18:26:15.192Z" agent="Mozilla/5.0 (Windows NT 10.0; Win64; x64) AppleWebKit/537.36 (KHTML, like Gecko) Chrome/113.0.0.0 Safari/537.36" etag="5cfzoJDWptIKz92kl-R2" version="21.3.4" type="device">
  <diagram name="Page-1" id="vLJ2JJdM1R_V5CbQOyrv">
    <mxGraphModel dx="1434" dy="822" grid="1" gridSize="10" guides="1" tooltips="1" connect="1" arrows="1" fold="1" page="1" pageScale="1" pageWidth="827" pageHeight="1169" math="0" shadow="0">
      <root>
        <mxCell id="0" />
        <mxCell id="1" parent="0" />
        <mxCell id="cxaBc0N5BXQE0kFoCGQ7-1" value="Sign Up" style="swimlane;childLayout=stackLayout;resizeParent=1;resizeParentMax=0;startSize=20;html=1;" vertex="1" parent="1">
          <mxGeometry x="230.00000000000045" y="180" width="1039" height="1670" as="geometry" />
        </mxCell>
        <mxCell id="cxaBc0N5BXQE0kFoCGQ7-2" value="Unregister User" style="swimlane;startSize=20;html=1;" vertex="1" parent="cxaBc0N5BXQE0kFoCGQ7-1">
          <mxGeometry y="20" width="390" height="1650" as="geometry" />
        </mxCell>
        <mxCell id="cxaBc0N5BXQE0kFoCGQ7-7" value="" style="ellipse;html=1;shape=startState;fillColor=#000000;strokeColor=#ff0000;" vertex="1" parent="cxaBc0N5BXQE0kFoCGQ7-2">
          <mxGeometry x="176.99999999999955" y="30" width="30" height="30" as="geometry" />
        </mxCell>
        <mxCell id="cxaBc0N5BXQE0kFoCGQ7-8" value="" style="edgeStyle=orthogonalEdgeStyle;html=1;verticalAlign=bottom;endArrow=open;endSize=8;strokeColor=#ff0000;rounded=0;" edge="1" source="cxaBc0N5BXQE0kFoCGQ7-7" parent="cxaBc0N5BXQE0kFoCGQ7-2">
          <mxGeometry relative="1" as="geometry">
            <mxPoint x="191.99999999999955" y="120" as="targetPoint" />
          </mxGeometry>
        </mxCell>
        <mxCell id="cxaBc0N5BXQE0kFoCGQ7-10" value="Go to the online teacher trainer" style="rounded=1;whiteSpace=wrap;html=1;arcSize=40;fontColor=#000000;fillColor=#ffffc0;strokeColor=#ff0000;" vertex="1" parent="cxaBc0N5BXQE0kFoCGQ7-2">
          <mxGeometry x="131.99999999999955" y="120" width="120" height="40" as="geometry" />
        </mxCell>
        <mxCell id="cxaBc0N5BXQE0kFoCGQ7-11" value="" style="edgeStyle=orthogonalEdgeStyle;html=1;verticalAlign=bottom;endArrow=open;endSize=8;strokeColor=#ff0000;rounded=0;" edge="1" parent="cxaBc0N5BXQE0kFoCGQ7-2" source="cxaBc0N5BXQE0kFoCGQ7-10">
          <mxGeometry relative="1" as="geometry">
            <mxPoint x="191.99999999999955" y="220" as="targetPoint" />
          </mxGeometry>
        </mxCell>
        <mxCell id="cxaBc0N5BXQE0kFoCGQ7-12" value="Select sign-in as Trainee Teacher or Lecturer" style="rounded=1;whiteSpace=wrap;html=1;arcSize=40;fontColor=#000000;fillColor=#ffffc0;strokeColor=#ff0000;" vertex="1" parent="cxaBc0N5BXQE0kFoCGQ7-2">
          <mxGeometry x="131.99999999999955" y="220" width="120" height="40" as="geometry" />
        </mxCell>
        <mxCell id="cxaBc0N5BXQE0kFoCGQ7-13" value="" style="edgeStyle=orthogonalEdgeStyle;html=1;verticalAlign=bottom;endArrow=open;endSize=8;strokeColor=#ff0000;rounded=0;" edge="1" parent="cxaBc0N5BXQE0kFoCGQ7-2" source="cxaBc0N5BXQE0kFoCGQ7-12">
          <mxGeometry relative="1" as="geometry">
            <mxPoint x="191.99999999999955" y="321" as="targetPoint" />
          </mxGeometry>
        </mxCell>
        <mxCell id="cxaBc0N5BXQE0kFoCGQ7-14" value="Fill the form" style="rounded=1;whiteSpace=wrap;html=1;arcSize=40;fontColor=#000000;fillColor=#ffffc0;strokeColor=#ff0000;" vertex="1" parent="cxaBc0N5BXQE0kFoCGQ7-2">
          <mxGeometry x="131.99999999999955" y="320" width="120" height="40" as="geometry" />
        </mxCell>
        <mxCell id="cxaBc0N5BXQE0kFoCGQ7-15" value="" style="edgeStyle=orthogonalEdgeStyle;html=1;verticalAlign=bottom;endArrow=open;endSize=8;strokeColor=#ff0000;rounded=0;" edge="1" parent="cxaBc0N5BXQE0kFoCGQ7-2" source="cxaBc0N5BXQE0kFoCGQ7-14">
          <mxGeometry relative="1" as="geometry">
            <mxPoint x="191.99999999999955" y="420" as="targetPoint" />
          </mxGeometry>
        </mxCell>
        <mxCell id="cxaBc0N5BXQE0kFoCGQ7-16" value="" style="shape=line;html=1;strokeWidth=6;strokeColor=#ff0000;" vertex="1" parent="cxaBc0N5BXQE0kFoCGQ7-2">
          <mxGeometry x="43.999999999999545" y="420" width="300" height="10" as="geometry" />
        </mxCell>
        <mxCell id="cxaBc0N5BXQE0kFoCGQ7-17" value="" style="edgeStyle=orthogonalEdgeStyle;html=1;verticalAlign=bottom;endArrow=open;endSize=8;strokeColor=#ff0000;rounded=0;" edge="1" parent="cxaBc0N5BXQE0kFoCGQ7-2">
          <mxGeometry relative="1" as="geometry">
            <mxPoint x="194.99999999999955" y="500" as="targetPoint" />
            <mxPoint x="194.99999999999955" y="430" as="sourcePoint" />
            <Array as="points">
              <mxPoint x="194.99999999999955" y="500" />
            </Array>
          </mxGeometry>
        </mxCell>
        <mxCell id="cxaBc0N5BXQE0kFoCGQ7-18" value="" style="edgeStyle=orthogonalEdgeStyle;html=1;verticalAlign=bottom;endArrow=open;endSize=8;strokeColor=#ff0000;rounded=0;exitX=0.063;exitY=0.6;exitDx=0;exitDy=0;exitPerimeter=0;" edge="1" parent="cxaBc0N5BXQE0kFoCGQ7-2" source="cxaBc0N5BXQE0kFoCGQ7-16">
          <mxGeometry relative="1" as="geometry">
            <mxPoint x="62.999999999999545" y="500" as="targetPoint" />
            <mxPoint x="62.999999999999545" y="432" as="sourcePoint" />
          </mxGeometry>
        </mxCell>
        <mxCell id="cxaBc0N5BXQE0kFoCGQ7-19" value="" style="edgeStyle=orthogonalEdgeStyle;html=1;verticalAlign=bottom;endArrow=open;endSize=8;strokeColor=#ff0000;rounded=0;" edge="1" parent="cxaBc0N5BXQE0kFoCGQ7-2">
          <mxGeometry relative="1" as="geometry">
            <mxPoint x="320.99999999999955" y="500" as="targetPoint" />
            <mxPoint x="323.99999999999955" y="426" as="sourcePoint" />
            <Array as="points">
              <mxPoint x="320.99999999999955" y="426" />
            </Array>
          </mxGeometry>
        </mxCell>
        <mxCell id="cxaBc0N5BXQE0kFoCGQ7-20" value="Enter Email" style="rounded=1;whiteSpace=wrap;html=1;arcSize=40;fontColor=#000000;fillColor=#ffffc0;strokeColor=#ff0000;" vertex="1" parent="cxaBc0N5BXQE0kFoCGQ7-2">
          <mxGeometry x="2.9999999999995453" y="503" width="120" height="40" as="geometry" />
        </mxCell>
        <mxCell id="cxaBc0N5BXQE0kFoCGQ7-21" value="Enter Password" style="rounded=1;whiteSpace=wrap;html=1;arcSize=40;fontColor=#000000;fillColor=#ffffc0;strokeColor=#ff0000;" vertex="1" parent="cxaBc0N5BXQE0kFoCGQ7-2">
          <mxGeometry x="134.99999999999955" y="502" width="120" height="40" as="geometry" />
        </mxCell>
        <mxCell id="cxaBc0N5BXQE0kFoCGQ7-22" value="Enter Confirmation&lt;br&gt;Password" style="rounded=1;whiteSpace=wrap;html=1;arcSize=40;fontColor=#000000;fillColor=#ffffc0;strokeColor=#ff0000;" vertex="1" parent="cxaBc0N5BXQE0kFoCGQ7-2">
          <mxGeometry x="263.99999999999955" y="502" width="120" height="40" as="geometry" />
        </mxCell>
        <mxCell id="cxaBc0N5BXQE0kFoCGQ7-4" value="Admin" style="swimlane;startSize=20;html=1;" vertex="1" parent="cxaBc0N5BXQE0kFoCGQ7-1">
          <mxGeometry x="390" y="20" width="350" height="1650" as="geometry" />
        </mxCell>
        <mxCell id="cxaBc0N5BXQE0kFoCGQ7-42" value="Check form details" style="rounded=1;whiteSpace=wrap;html=1;arcSize=40;fontColor=#000000;fillColor=#ffffc0;strokeColor=#ff0000;" vertex="1" parent="cxaBc0N5BXQE0kFoCGQ7-4">
          <mxGeometry x="89.99999999999955" y="1080" width="120" height="40" as="geometry" />
        </mxCell>
        <mxCell id="cxaBc0N5BXQE0kFoCGQ7-43" value="" style="edgeStyle=orthogonalEdgeStyle;html=1;verticalAlign=bottom;endArrow=open;endSize=8;strokeColor=#ff0000;rounded=0;" edge="1" parent="cxaBc0N5BXQE0kFoCGQ7-4" source="cxaBc0N5BXQE0kFoCGQ7-42">
          <mxGeometry relative="1" as="geometry">
            <mxPoint x="149.99999999999955" y="1180" as="targetPoint" />
          </mxGeometry>
        </mxCell>
        <mxCell id="cxaBc0N5BXQE0kFoCGQ7-44" value="" style="strokeWidth=1;html=1;shape=mxgraph.flowchart.annotation_1;align=left;pointerEvents=1;direction=south;" vertex="1" parent="cxaBc0N5BXQE0kFoCGQ7-4">
          <mxGeometry x="190.99999999999955" y="1110" width="16" height="10" as="geometry" />
        </mxCell>
        <mxCell id="cxaBc0N5BXQE0kFoCGQ7-45" value="" style="endArrow=none;html=1;rounded=0;strokeWidth=1;entryX=-0.598;entryY=0.51;entryDx=0;entryDy=0;entryPerimeter=0;" edge="1" parent="cxaBc0N5BXQE0kFoCGQ7-4" target="cxaBc0N5BXQE0kFoCGQ7-44">
          <mxGeometry width="50" height="50" relative="1" as="geometry">
            <mxPoint x="198.99999999999955" y="1120" as="sourcePoint" />
            <mxPoint x="198.99999999999955" y="1100" as="targetPoint" />
          </mxGeometry>
        </mxCell>
        <mxCell id="cxaBc0N5BXQE0kFoCGQ7-89" style="edgeStyle=orthogonalEdgeStyle;rounded=0;orthogonalLoop=1;jettySize=auto;html=1;entryX=0.218;entryY=-0.8;entryDx=0;entryDy=0;entryPerimeter=0;strokeColor=#FF0000;endArrow=open;endFill=0;" edge="1" parent="cxaBc0N5BXQE0kFoCGQ7-4" source="cxaBc0N5BXQE0kFoCGQ7-68" target="cxaBc0N5BXQE0kFoCGQ7-75">
          <mxGeometry relative="1" as="geometry" />
        </mxCell>
        <mxCell id="cxaBc0N5BXQE0kFoCGQ7-68" value="" style="rhombus;whiteSpace=wrap;html=1;fontColor=#000000;fillColor=#ffffc0;strokeColor=#ff0000;" vertex="1" parent="cxaBc0N5BXQE0kFoCGQ7-4">
          <mxGeometry x="109.99999999999955" y="1180" width="80" height="40" as="geometry" />
        </mxCell>
        <mxCell id="cxaBc0N5BXQE0kFoCGQ7-70" value="Add to Registered users" style="rounded=1;whiteSpace=wrap;html=1;arcSize=40;fontColor=#000000;fillColor=#ffffc0;strokeColor=#ff0000;" vertex="1" parent="cxaBc0N5BXQE0kFoCGQ7-4">
          <mxGeometry x="28.999999999999545" y="1442" width="120" height="40" as="geometry" />
        </mxCell>
        <mxCell id="cxaBc0N5BXQE0kFoCGQ7-71" value="" style="edgeStyle=orthogonalEdgeStyle;html=1;verticalAlign=bottom;endArrow=open;endSize=8;strokeColor=#ff0000;rounded=0;" edge="1" parent="cxaBc0N5BXQE0kFoCGQ7-4" source="cxaBc0N5BXQE0kFoCGQ7-70">
          <mxGeometry relative="1" as="geometry">
            <mxPoint x="88.99999999999955" y="1542" as="targetPoint" />
          </mxGeometry>
        </mxCell>
        <mxCell id="cxaBc0N5BXQE0kFoCGQ7-74" value="" style="ellipse;html=1;shape=endState;fillColor=#000000;strokeColor=#ff0000;" vertex="1" parent="cxaBc0N5BXQE0kFoCGQ7-4">
          <mxGeometry x="134.99999999999955" y="1618" width="30" height="30" as="geometry" />
        </mxCell>
        <mxCell id="cxaBc0N5BXQE0kFoCGQ7-75" value="" style="shape=line;html=1;strokeWidth=6;strokeColor=#ff0000;" vertex="1" parent="cxaBc0N5BXQE0kFoCGQ7-4">
          <mxGeometry x="30" y="1378" width="550" height="10" as="geometry" />
        </mxCell>
        <mxCell id="cxaBc0N5BXQE0kFoCGQ7-79" value="" style="edgeStyle=orthogonalEdgeStyle;html=1;verticalAlign=bottom;endArrow=open;endSize=8;strokeColor=#ff0000;rounded=0;entryX=0.5;entryY=0;entryDx=0;entryDy=0;" edge="1" parent="cxaBc0N5BXQE0kFoCGQ7-4" target="cxaBc0N5BXQE0kFoCGQ7-70">
          <mxGeometry relative="1" as="geometry">
            <mxPoint x="86.99999999999955" y="1458" as="targetPoint" />
            <mxPoint x="88.99999999999955" y="1383" as="sourcePoint" />
            <Array as="points">
              <mxPoint x="88.99999999999955" y="1390" />
              <mxPoint x="88.99999999999955" y="1390" />
            </Array>
          </mxGeometry>
        </mxCell>
        <mxCell id="cxaBc0N5BXQE0kFoCGQ7-77" value="" style="shape=line;html=1;strokeWidth=6;strokeColor=#ff0000;" vertex="1" parent="cxaBc0N5BXQE0kFoCGQ7-4">
          <mxGeometry x="20" y="1545" width="550" height="10" as="geometry" />
        </mxCell>
        <mxCell id="cxaBc0N5BXQE0kFoCGQ7-78" value="" style="edgeStyle=orthogonalEdgeStyle;html=1;verticalAlign=bottom;endArrow=open;endSize=8;strokeColor=#ff0000;rounded=0;" edge="1" parent="cxaBc0N5BXQE0kFoCGQ7-4" source="cxaBc0N5BXQE0kFoCGQ7-77">
          <mxGeometry relative="1" as="geometry">
            <mxPoint x="148.99999999999955" y="1615" as="targetPoint" />
            <Array as="points">
              <mxPoint x="148.99999999999955" y="1605" />
              <mxPoint x="148.99999999999955" y="1605" />
            </Array>
          </mxGeometry>
        </mxCell>
        <mxCell id="cxaBc0N5BXQE0kFoCGQ7-80" value="" style="strokeWidth=1;html=1;shape=mxgraph.flowchart.annotation_1;align=left;pointerEvents=1;direction=south;" vertex="1" parent="cxaBc0N5BXQE0kFoCGQ7-4">
          <mxGeometry x="118.99999999999955" y="1472" width="16" height="10" as="geometry" />
        </mxCell>
        <mxCell id="cxaBc0N5BXQE0kFoCGQ7-81" value="" style="endArrow=none;html=1;rounded=0;strokeWidth=1;entryX=-0.598;entryY=0.51;entryDx=0;entryDy=0;entryPerimeter=0;" edge="1" parent="cxaBc0N5BXQE0kFoCGQ7-4" target="cxaBc0N5BXQE0kFoCGQ7-80">
          <mxGeometry width="50" height="50" relative="1" as="geometry">
            <mxPoint x="126.99999999999955" y="1482" as="sourcePoint" />
            <mxPoint x="126.99999999999955" y="1462" as="targetPoint" />
          </mxGeometry>
        </mxCell>
        <mxCell id="cxaBc0N5BXQE0kFoCGQ7-83" value="[Invalid]" style="text;html=1;align=center;verticalAlign=middle;resizable=0;points=[];autosize=1;strokeColor=none;fillColor=none;" vertex="1" parent="cxaBc0N5BXQE0kFoCGQ7-4">
          <mxGeometry x="199.99999999999955" y="1170" width="60" height="30" as="geometry" />
        </mxCell>
        <mxCell id="cxaBc0N5BXQE0kFoCGQ7-6" value="System" style="swimlane;startSize=20;html=1;" vertex="1" parent="cxaBc0N5BXQE0kFoCGQ7-1">
          <mxGeometry x="740" y="20" width="299" height="1650" as="geometry" />
        </mxCell>
        <mxCell id="cxaBc0N5BXQE0kFoCGQ7-30" value="" style="shape=line;html=1;strokeWidth=6;strokeColor=#ff0000;" vertex="1" parent="cxaBc0N5BXQE0kFoCGQ7-6">
          <mxGeometry x="-710" y="612" width="988" height="10" as="geometry" />
        </mxCell>
        <mxCell id="cxaBc0N5BXQE0kFoCGQ7-31" value="" style="edgeStyle=orthogonalEdgeStyle;html=1;verticalAlign=bottom;endArrow=open;endSize=8;strokeColor=#ff0000;rounded=0;" edge="1" parent="cxaBc0N5BXQE0kFoCGQ7-6">
          <mxGeometry relative="1" as="geometry">
            <mxPoint x="226.99999999999955" y="686" as="targetPoint" />
            <mxPoint x="226.99999999999955" y="622" as="sourcePoint" />
          </mxGeometry>
        </mxCell>
        <mxCell id="cxaBc0N5BXQE0kFoCGQ7-32" value="Check if the email is valid" style="rounded=1;whiteSpace=wrap;html=1;arcSize=40;fontColor=#000000;fillColor=#ffffc0;strokeColor=#ff0000;" vertex="1" parent="cxaBc0N5BXQE0kFoCGQ7-6">
          <mxGeometry x="9.999999999999545" y="688" width="120" height="40" as="geometry" />
        </mxCell>
        <mxCell id="cxaBc0N5BXQE0kFoCGQ7-33" value="Check if the password is valid" style="rounded=1;whiteSpace=wrap;html=1;arcSize=40;fontColor=#000000;fillColor=#ffffc0;strokeColor=#ff0000;" vertex="1" parent="cxaBc0N5BXQE0kFoCGQ7-6">
          <mxGeometry x="165.99999999999955" y="688" width="120" height="40" as="geometry" />
        </mxCell>
        <mxCell id="cxaBc0N5BXQE0kFoCGQ7-34" value="" style="edgeStyle=orthogonalEdgeStyle;html=1;verticalAlign=bottom;endArrow=open;endSize=8;strokeColor=#ff0000;rounded=0;" edge="1" parent="cxaBc0N5BXQE0kFoCGQ7-6">
          <mxGeometry relative="1" as="geometry">
            <mxPoint x="67.99999999999955" y="686" as="targetPoint" />
            <mxPoint x="69.99999999999955" y="616" as="sourcePoint" />
            <Array as="points">
              <mxPoint x="67.99999999999955" y="616" />
            </Array>
          </mxGeometry>
        </mxCell>
        <mxCell id="cxaBc0N5BXQE0kFoCGQ7-35" value="" style="strokeWidth=1;html=1;shape=mxgraph.flowchart.annotation_1;align=left;pointerEvents=1;direction=south;" vertex="1" parent="cxaBc0N5BXQE0kFoCGQ7-6">
          <mxGeometry x="269.99999999999955" y="718" width="16" height="10" as="geometry" />
        </mxCell>
        <mxCell id="cxaBc0N5BXQE0kFoCGQ7-36" value="" style="endArrow=none;html=1;rounded=0;strokeWidth=1;entryX=-0.598;entryY=0.51;entryDx=0;entryDy=0;entryPerimeter=0;" edge="1" parent="cxaBc0N5BXQE0kFoCGQ7-6" target="cxaBc0N5BXQE0kFoCGQ7-35">
          <mxGeometry width="50" height="50" relative="1" as="geometry">
            <mxPoint x="277.99999999999955" y="728" as="sourcePoint" />
            <mxPoint x="277.99999999999955" y="708" as="targetPoint" />
          </mxGeometry>
        </mxCell>
        <mxCell id="cxaBc0N5BXQE0kFoCGQ7-86" value="" style="edgeStyle=orthogonalEdgeStyle;rounded=0;orthogonalLoop=1;jettySize=auto;html=1;strokeColor=#FF0000;endArrow=open;endFill=0;" edge="1" parent="cxaBc0N5BXQE0kFoCGQ7-6" source="cxaBc0N5BXQE0kFoCGQ7-40" target="cxaBc0N5BXQE0kFoCGQ7-84">
          <mxGeometry relative="1" as="geometry" />
        </mxCell>
        <mxCell id="cxaBc0N5BXQE0kFoCGQ7-40" value="" style="rhombus;whiteSpace=wrap;html=1;fontColor=#000000;fillColor=#ffffc0;strokeColor=#ff0000;" vertex="1" parent="cxaBc0N5BXQE0kFoCGQ7-6">
          <mxGeometry x="110.49999999999955" y="875" width="80" height="40" as="geometry" />
        </mxCell>
        <mxCell id="cxaBc0N5BXQE0kFoCGQ7-46" value="" style="shape=line;html=1;strokeWidth=6;strokeColor=#ff0000;" vertex="1" parent="cxaBc0N5BXQE0kFoCGQ7-6">
          <mxGeometry x="10" y="795" width="280" height="10" as="geometry" />
        </mxCell>
        <mxCell id="cxaBc0N5BXQE0kFoCGQ7-47" value="" style="edgeStyle=orthogonalEdgeStyle;html=1;verticalAlign=bottom;endArrow=open;endSize=8;strokeColor=#ff0000;rounded=0;" edge="1" parent="cxaBc0N5BXQE0kFoCGQ7-6" source="cxaBc0N5BXQE0kFoCGQ7-46">
          <mxGeometry relative="1" as="geometry">
            <mxPoint x="148.99999999999955" y="875" as="targetPoint" />
          </mxGeometry>
        </mxCell>
        <mxCell id="cxaBc0N5BXQE0kFoCGQ7-53" value="[Invalid]" style="text;html=1;align=center;verticalAlign=middle;resizable=0;points=[];autosize=1;strokeColor=none;fillColor=none;" vertex="1" parent="cxaBc0N5BXQE0kFoCGQ7-6">
          <mxGeometry x="89.99999999999955" y="915" width="60" height="30" as="geometry" />
        </mxCell>
        <mxCell id="cxaBc0N5BXQE0kFoCGQ7-72" value="Send an email Registration is successful" style="rounded=1;whiteSpace=wrap;html=1;arcSize=40;fontColor=#000000;fillColor=#ffffc0;strokeColor=#ff0000;" vertex="1" parent="cxaBc0N5BXQE0kFoCGQ7-6">
          <mxGeometry x="79.49999999999955" y="1445" width="140" height="40" as="geometry" />
        </mxCell>
        <mxCell id="cxaBc0N5BXQE0kFoCGQ7-73" value="" style="edgeStyle=orthogonalEdgeStyle;html=1;verticalAlign=bottom;endArrow=open;endSize=8;strokeColor=#ff0000;rounded=0;" edge="1" parent="cxaBc0N5BXQE0kFoCGQ7-6" source="cxaBc0N5BXQE0kFoCGQ7-72">
          <mxGeometry relative="1" as="geometry">
            <mxPoint x="149.49999999999955" y="1545" as="targetPoint" />
          </mxGeometry>
        </mxCell>
        <mxCell id="cxaBc0N5BXQE0kFoCGQ7-84" value="Send a message Email/password is invalid&amp;nbsp;" style="rounded=1;whiteSpace=wrap;html=1;arcSize=40;fontColor=#000000;fillColor=#ffffc0;strokeColor=#ff0000;" vertex="1" parent="cxaBc0N5BXQE0kFoCGQ7-6">
          <mxGeometry x="75.49999999999955" y="980" width="150" height="40" as="geometry" />
        </mxCell>
        <mxCell id="cxaBc0N5BXQE0kFoCGQ7-87" value="Send an email&amp;nbsp; form details&amp;nbsp; are invalid&amp;nbsp;" style="rounded=1;whiteSpace=wrap;html=1;arcSize=40;fontColor=#000000;fillColor=#ffffc0;strokeColor=#ff0000;" vertex="1" parent="cxaBc0N5BXQE0kFoCGQ7-6">
          <mxGeometry x="74.99999999999955" y="1250" width="150" height="40" as="geometry" />
        </mxCell>
        <mxCell id="cxaBc0N5BXQE0kFoCGQ7-52" style="edgeStyle=orthogonalEdgeStyle;rounded=0;orthogonalLoop=1;jettySize=auto;html=1;endArrow=open;endFill=0;fillColor=#e51400;strokeColor=#FF0000;entryX=1;entryY=0.5;entryDx=0;entryDy=0;exitX=0;exitY=0.5;exitDx=0;exitDy=0;" edge="1" parent="cxaBc0N5BXQE0kFoCGQ7-1" source="cxaBc0N5BXQE0kFoCGQ7-84" target="cxaBc0N5BXQE0kFoCGQ7-14">
          <mxGeometry relative="1" as="geometry">
            <mxPoint x="909.9999999999995" y="900" as="targetPoint" />
          </mxGeometry>
        </mxCell>
        <mxCell id="cxaBc0N5BXQE0kFoCGQ7-41" value="[Valid]" style="edgeStyle=orthogonalEdgeStyle;html=1;align=left;verticalAlign=top;endArrow=open;endSize=8;strokeColor=#ff0000;rounded=0;entryX=0.5;entryY=0;entryDx=0;entryDy=0;exitX=1;exitY=0.5;exitDx=0;exitDy=0;" edge="1" parent="cxaBc0N5BXQE0kFoCGQ7-1" source="cxaBc0N5BXQE0kFoCGQ7-40" target="cxaBc0N5BXQE0kFoCGQ7-42">
          <mxGeometry x="-1" relative="1" as="geometry">
            <mxPoint x="720.4999999999995" y="994" as="targetPoint" />
            <Array as="points">
              <mxPoint x="1020" y="915" />
              <mxPoint x="1020" y="1080" />
              <mxPoint x="540" y="1080" />
            </Array>
          </mxGeometry>
        </mxCell>
        <mxCell id="cxaBc0N5BXQE0kFoCGQ7-82" style="edgeStyle=orthogonalEdgeStyle;rounded=0;orthogonalLoop=1;jettySize=auto;html=1;entryX=0;entryY=0.5;entryDx=0;entryDy=0;strokeColor=#FF0000;endArrow=open;endFill=0;exitX=0;exitY=0.5;exitDx=0;exitDy=0;" edge="1" parent="cxaBc0N5BXQE0kFoCGQ7-1" source="cxaBc0N5BXQE0kFoCGQ7-87" target="cxaBc0N5BXQE0kFoCGQ7-12">
          <mxGeometry relative="1" as="geometry">
            <Array as="points">
              <mxPoint x="-20" y="1290" />
              <mxPoint x="-20" y="260" />
            </Array>
          </mxGeometry>
        </mxCell>
        <mxCell id="cxaBc0N5BXQE0kFoCGQ7-76" value="" style="edgeStyle=orthogonalEdgeStyle;html=1;verticalAlign=bottom;endArrow=open;endSize=8;strokeColor=#ff0000;rounded=0;entryX=0.5;entryY=0;entryDx=0;entryDy=0;" edge="1" parent="cxaBc0N5BXQE0kFoCGQ7-1" target="cxaBc0N5BXQE0kFoCGQ7-72">
          <mxGeometry relative="1" as="geometry">
            <mxPoint x="747.4999999999995" y="1481" as="targetPoint" />
            <mxPoint x="889.9999999999995" y="1403" as="sourcePoint" />
            <Array as="points" />
          </mxGeometry>
        </mxCell>
        <mxCell id="cxaBc0N5BXQE0kFoCGQ7-69" value="[Valid]" style="edgeStyle=orthogonalEdgeStyle;html=1;align=left;verticalAlign=top;endArrow=open;endSize=8;strokeColor=#ff0000;rounded=0;exitX=1;exitY=0.5;exitDx=0;exitDy=0;entryX=0.5;entryY=0;entryDx=0;entryDy=0;" edge="1" parent="cxaBc0N5BXQE0kFoCGQ7-1" source="cxaBc0N5BXQE0kFoCGQ7-68" target="cxaBc0N5BXQE0kFoCGQ7-87">
          <mxGeometry x="-1" y="-42" relative="1" as="geometry">
            <mxPoint x="539.9999999999995" y="1300" as="targetPoint" />
            <Array as="points">
              <mxPoint x="890" y="1220" />
            </Array>
            <mxPoint x="-30" y="-12" as="offset" />
          </mxGeometry>
        </mxCell>
        <mxCell id="cxaBc0N5BXQE0kFoCGQ7-37" value="" style="edgeStyle=orthogonalEdgeStyle;html=1;verticalAlign=bottom;endArrow=open;endSize=8;strokeColor=#ff0000;rounded=0;" edge="1" parent="1">
          <mxGeometry relative="1" as="geometry">
            <mxPoint x="293" y="803" as="targetPoint" />
            <mxPoint x="293" y="748" as="sourcePoint" />
          </mxGeometry>
        </mxCell>
        <mxCell id="cxaBc0N5BXQE0kFoCGQ7-38" value="" style="edgeStyle=orthogonalEdgeStyle;html=1;verticalAlign=bottom;endArrow=open;endSize=8;strokeColor=#ff0000;rounded=0;" edge="1" parent="1">
          <mxGeometry relative="1" as="geometry">
            <mxPoint x="425" y="807" as="targetPoint" />
            <mxPoint x="425" y="747" as="sourcePoint" />
          </mxGeometry>
        </mxCell>
        <mxCell id="cxaBc0N5BXQE0kFoCGQ7-39" value="" style="edgeStyle=orthogonalEdgeStyle;html=1;verticalAlign=bottom;endArrow=open;endSize=8;strokeColor=#ff0000;rounded=0;" edge="1" parent="1">
          <mxGeometry relative="1" as="geometry">
            <mxPoint x="554" y="807" as="targetPoint" />
            <mxPoint x="554" y="747" as="sourcePoint" />
          </mxGeometry>
        </mxCell>
        <mxCell id="cxaBc0N5BXQE0kFoCGQ7-50" value="" style="edgeStyle=orthogonalEdgeStyle;html=1;verticalAlign=bottom;endArrow=open;endSize=8;strokeColor=#ff0000;rounded=0;" edge="1" parent="1">
          <mxGeometry relative="1" as="geometry">
            <mxPoint x="1042" y="992" as="targetPoint" />
            <mxPoint x="1042" y="932" as="sourcePoint" />
          </mxGeometry>
        </mxCell>
        <mxCell id="cxaBc0N5BXQE0kFoCGQ7-51" value="" style="edgeStyle=orthogonalEdgeStyle;html=1;verticalAlign=bottom;endArrow=open;endSize=8;strokeColor=#ff0000;rounded=0;" edge="1" parent="1">
          <mxGeometry relative="1" as="geometry">
            <mxPoint x="1198" y="992" as="targetPoint" />
            <mxPoint x="1198" y="932" as="sourcePoint" />
          </mxGeometry>
        </mxCell>
      </root>
    </mxGraphModel>
  </diagram>
</mxfile>
